<?xml version="1.0" encoding="utf-8"?>
<!-- Generator: Adobe Illustrator 23.0.2, SVG Export Plug-In . SVG Version: 6.00 Build 0)  -->
<svg version="1.1" id="Layer_1" xmlns="http://www.w3.org/2000/svg" xmlns:xlink="http://www.w3.org/1999/xlink" x="0px" y="0px"
	 viewBox="0 0 512 512" style="enable-background:new 0 0 512 512;" xml:space="preserve">
<style type="text/css">
	.st0{fill:#C2175B;}
</style>
<path class="st0" d="M332,0H180C80.6,0,0,80.6,0,180v152c0,99.4,80.6,180,180,180h152c99.4,0,180-80.6,180-180V180
	C512,80.6,431.4,0,332,0z M411.3,422H110.7c-11.4,0-20.7-9.3-20.7-20.7V100.7c0-5.7,4.6-10.3,10.4-10.4c5.7,0,10.4,4.6,10.4,10.4
	v300.6h300.6c5.7,0,10.3,4.6,10.4,10.4C421.6,417.3,417,422,411.3,422z M421.7,370.2c0,5.7-4.6,10.4-10.4,10.4H141.8
	c-5.7,0-10.4-4.6-10.4-10.4v-40.1l127.1-68.4c3.8-2,8.4-1.5,11.7,1.3l61.8,52.9c3.4,2.9,8.4,3.3,12.2,0.9l77.4-48.4V370.2z
	 M421.7,244l-75.5,47.2c-3.8,2.4-8.8,2-12.2-0.9l-61-52.3c-3.3-2.8-7.9-3.3-11.7-1.3l-129.8,69.9v-123c0-2,0.6-4,1.7-5.7
	c3.2-4.8,9.6-6.1,14.4-2.9l55.8,37.2l118.4-98.7c4.1-3.4,10.2-3.2,14,0.6l82.9,82.9c1.9,1.9,3,4.6,3,7.3V244z"/>
</svg>
