<?xml version="1.0" encoding="utf-8"?>
<!-- Generator: Adobe Illustrator 23.0.2, SVG Export Plug-In . SVG Version: 6.00 Build 0)  -->
<svg version="1.1" id="Layer_1" xmlns="http://www.w3.org/2000/svg" xmlns:xlink="http://www.w3.org/1999/xlink" x="0px" y="0px"
	 viewBox="0 0 512 512" style="enable-background:new 0 0 512 512;" xml:space="preserve">
<style type="text/css">
	.st0{fill:#C2175B;}
</style>
<path class="st0" d="M332,0H180C80.6,0,0,80.6,0,180v152c0,99.4,80.6,180,180,180h152c99.4,0,180-80.6,180-180V180
	C512,80.6,431.4,0,332,0z M132,147.3c0-1.8,0.5-3.6,1.6-5c2.8-4,8.3-5,12.3-2.2l53,27.1c3.3,2.3,7.7,2.1,10.8-0.6L323.8,98
	c3.5-3,8.8-2.8,12,0.5l83.7,65.4v0c1.6,1.7,2.5,3.9,2.5,6.2V201c0,2.4-0.9,4.6-2.6,6.3c-3.5,3.4-9,3.4-12.5-0.1l-71.3-52.6
	c-3.3-3.3-8.6-3.5-12.1-0.5l-113,69c-3,2.6-7.5,2.9-10.8,0.6l-63.9-33.8c-2.4-1.7-3.8-4.4-3.9-7.3V147.3z M422,322.9
	c0,3.1-1.6,5.9-4.2,7.5l-74.1,46.2c-3.3,2-7.5,1.7-10.4-0.8l-63.4-34.4c-2.8-2.4-6.7-2.8-9.9-1.1L145,382.7c-4.3,2.3-9.7,0.7-12-3.6
	c0,0,0,0,0,0c-0.7-1.3-1.1-2.7-1.1-4.2v-35.9c0-3.3,1.8-6.2,4.7-7.8l123-46.7c3.2-1.7,7.1-1.3,9.9,1l63.4,33.9
	c2.9,2.5,7.1,2.8,10.4,0.8l65.1-40.8c4.1-2.6,9.6-1.3,12.2,2.8c0.9,1.4,1.3,3,1.3,4.7V322.9z M422,257c0,5.5-4.5,10-10,10H112v145
	c0,5.5-4.5,10-10,10h-2c-5.5,0-10-4.5-10-10V257v-2V100c0-5.5,4.5-10,10-10h2c5.5,0,10,4.5,10,10v145h300c5.5,0,10,4.5,10,10V257z"
	/>
</svg>
