<?xml version="1.0" encoding="utf-8"?>
<!-- Generator: Adobe Illustrator 23.0.2, SVG Export Plug-In . SVG Version: 6.00 Build 0)  -->
<svg version="1.1" id="Layer_1" xmlns="http://www.w3.org/2000/svg" xmlns:xlink="http://www.w3.org/1999/xlink" x="0px" y="0px"
	 viewBox="0 0 512 512" style="enable-background:new 0 0 512 512;" xml:space="preserve">
<style type="text/css">
	.st0{fill:#C2175B;}
</style>
<path class="st0" d="M332,0H180C80.6,0,0,80.6,0,180v152c0,99.4,80.6,180,180,180h152c99.4,0,180-80.6,180-180V180
	C512,80.6,431.4,0,332,0z M354.4,386.3c-1.9,2.1-4,4.1-6.3,5.7c0,0-0.1,0-0.1,0c-0.6,0.4-1.1,0.8-1.7,1.1c-0.1,0.1-0.2,0.1-0.4,0.2
	c-14.4,9.4-30.2,16.4-46.8,20.9c-88.5,24-179.8-28.3-203.8-116.8c-24-88.5,28.3-179.8,116.8-203.8c2.4-0.7,4.8-1.2,7.3-1.8
	c17.1-2.3,33.3,8.1,38.3,24.5c5.7,18.6-4.7,38.3-23.2,44c-1.4,0.3-2.7,0.6-4.1,1c-18.5,4.9-35.1,15.4-47.6,29.9
	c-34.5,39.9-30,100.8,10,135.3c31.7,27.3,77.4,31,113,9l0,0c0,0,0,0,0,0c1.7-1,3.3-2.1,4.9-3.3h0c12.9-7,28.7-5.3,39.8,4.3
	c0,0,0,0,0,0C365.4,349.3,367.1,371.6,354.4,386.3z M415.5,298.8c-0.8,2.9-1.6,5.7-2.6,8.5c-1.4,3.1-3.2,6-5.4,8.5
	c-12.7,14.7-34.9,16.4-49.6,3.7c0,0,0,0,0,0c-1-0.9-2-1.8-2.9-2.8c-8.4-9.1-11.4-21.9-7.9-33.8c0.1-0.3,0.2-0.6,0.3-0.9
	c13.2-43.8-6.3-90.7-46.5-112.4c-1.7-0.9-3.4-1.8-5.2-2.6c-8.7-5.2-14.7-14-16.5-23.9c-1.7-9.4,0.5-19.1,6.1-26.9
	c0.6-0.8,1.2-1.6,1.9-2.3c9.6-11.2,25.2-15.2,39-10c2.2,1,4.4,2.1,6.5,3.2C401.9,143.5,436.5,223.3,415.5,298.8z"/>
</svg>
