<?xml version="1.0" encoding="utf-8"?>
<!-- Generator: Adobe Illustrator 23.0.2, SVG Export Plug-In . SVG Version: 6.00 Build 0)  -->
<svg version="1.1" id="Layer_1" xmlns="http://www.w3.org/2000/svg" xmlns:xlink="http://www.w3.org/1999/xlink" x="0px" y="0px"
	 viewBox="0 0 512 512" style="enable-background:new 0 0 512 512;" xml:space="preserve">
<style type="text/css">
	.st0{fill:#C2175B;}
</style>
<g>
	<polygon class="st0" points="307.1,112 307,112.3 307.4,112.1 	"/>
	<path class="st0" d="M332,0H180C80.6,0,0,80.6,0,180v152c0,99.4,80.6,180,180,180h152c99.4,0,180-80.6,180-180V180
		C512,80.6,431.4,0,332,0z M313,90c19.3,0,35,15.7,35,35s-15.7,35-35,35s-35-15.7-35-35S293.7,90,313,90z M378.7,230.8
		c-7.5,1.4-14.3,4.7-20,9.3l-35.3-71.2c7.4-1.7,14.1-5.3,19.5-10.2L378.7,230.8z M289.5,163.4c6.2,3.8,13.3,6.1,21,6.6l-47.3,137.5
		c-6.2-3.8-13.4-6.1-21-6.4L289.5,163.4z M275,346c0,19.3-15.7,35-35,35s-35-15.7-35-35s15.7-35,35-35S275,326.7,275,346z
		 M209.5,312.9l-31.1-50.7c7.3-2.1,13.8-5.9,19-11.1l31.4,51.2C221.5,304.3,214.9,308,209.5,312.9z M166,184c19.3,0,35,15.7,35,35
		s-15.7,35-35,35s-35-15.7-35-35S146.7,184,166,184z M411.3,422H110.7c-11.4,0-20.7-9.3-20.7-20.7V100.7c0,0,0,0,0,0
		c0-5.7,4.7-10.4,10.4-10.4c5.7,0,10.4,4.7,10.4,10.4v300.6h300.6c0,0,0,0,0,0c5.7,0,10.4,4.7,10.4,10.4
		C421.7,417.4,417.1,422,411.3,422z M387,310c-19.3,0-35-15.7-35-35s15.7-35,35-35s35,15.7,35,35S406.3,310,387,310z"/>
</g>
</svg>
