<?xml version="1.0" encoding="utf-8"?>
<!-- Generator: Adobe Illustrator 23.0.2, SVG Export Plug-In . SVG Version: 6.00 Build 0)  -->
<svg version="1.1" id="Layer_1" xmlns="http://www.w3.org/2000/svg" xmlns:xlink="http://www.w3.org/1999/xlink" x="0px" y="0px"
	 viewBox="0 0 512 512" style="enable-background:new 0 0 512 512;" xml:space="preserve">
<style type="text/css">
	.st0{fill:#C2175B;}
</style>
<path class="st0" d="M332,0H180C80.6,0,0,80.6,0,180v152c0,99.4,80.6,180,180,180h152c99.4,0,180-80.6,180-180V180
	C512,80.6,431.4,0,332,0z M86.6,285.1c7.7-86.8,80.5-154.8,169-154.8c11,0,22,1.1,32.9,3.2c1.1,0.2,2.2,0.6,3.3,1.1
	c7,3.3,10,11.7,6.7,18.7l-19.7,41.4c-2.5,5.3-8.1,8.5-14,7.9c-3-0.3-6.1-0.4-9.1-0.4c-49.4,0.1-91.1,36.9-97.2,85.9
	c-0.9,7-6.8,12.3-13.9,12.3h-44v0c-0.4,0-0.8,0-1.3-0.1C91.5,299.6,85.8,292.8,86.6,285.1z M422,332c0,5.5-4.5,10-10,10H101
	c-5.5,0-10-4.5-10-10v-2c0-5.5,4.5-10,10-10h311c5.5,0,10,4.5,10,10V332z M410.6,300.4h-43.8c-7.1,0-13.1-5.2-14-12.3
	c-3.6-28.7-19.6-54.3-43.8-70.1c-5.9-3.8-8-11.4-5-17.8l19-39.8c0.2-0.4,0.4-0.8,0.7-1.2c4-6.6,12.6-8.7,19.2-4.7
	c46.5,28,76.9,76.5,81.7,130.6c0,0.4,0.1,0.8,0.1,1.2C424.7,294.1,418.4,300.4,410.6,300.4z"/>
</svg>
