<?xml version="1.0" encoding="utf-8"?>
<!-- Generator: Adobe Illustrator 23.0.2, SVG Export Plug-In . SVG Version: 6.00 Build 0)  -->
<svg version="1.1" id="Layer_1" xmlns="http://www.w3.org/2000/svg" xmlns:xlink="http://www.w3.org/1999/xlink" x="0px" y="0px"
	 viewBox="0 0 512 512" style="enable-background:new 0 0 512 512;" xml:space="preserve">
<style type="text/css">
	.st0{fill:#C2175B;}
</style>
<path class="st0" d="M332,0H180C80.6,0,0,80.6,0,180v152c0,99.4,80.6,180,180,180h152c99.4,0,180-80.6,180-180V180
	C512,80.6,431.4,0,332,0z M263.1,133.4c0-3.5,1.8-6.7,4.8-8.4l54.9-33l12,0.5l82.8,64.7c0.9,0.7,1.7,1.6,2.3,2.5
	c0.8,1.3,1.1,2.8,1.2,4.4V195c0,2.4-0.9,4.6-2.6,6.3c-3.5,3.4-9,3.4-12.5-0.1l-71.3-52.6c-3.3-3.3-8.6-3.5-12.1-0.5L278,175.3
	c-1.5,0.9-3.3,1.4-5.1,1.4c-5.4,0-9.8-4.4-9.8-9.8V133.4z M421,332.9v35.9c0,1.5-0.4,2.9-1.1,4.2c-2.3,4.3-7.7,5.9-12,3.6
	l-52.8-19.4c-3.8-1.4-6.3-5-6.3-9v-34.8c0-1.2,0.2-2.3,0.6-3.4c1.9-5,7.4-7.5,12.4-5.6l53.5,20.3C418.7,325.9,421,329.2,421,332.9z
	 M131,141.3c0-1.9,0.5-3.7,1.6-5.2c2.8-4,8.3-4.9,12.3-2.1l53,27.2c0,0,0,0,0,0c3.2,2.1,5.2,5.7,5.2,9.5v44.6c0,0.5-0.1,1.1-0.4,1.6
	c-0.8,1.3-2.6,1.7-3.9,0.9c0,0,0,0,0,0l-63.9-33.8c-2.4-1.6-3.8-4.4-3.8-7.3V141.3z M131,280.9c0-1.7,0.4-3.4,1.4-4.9
	c2.6-4.1,8-5.3,12.1-2.7l65.1,40.8c3.3,2,7.5,1.7,10.4-0.8l63.4-33.9c0.6-0.5,1.4-0.8,2.2-0.8c1.8,0,3.3,1.5,3.3,3.3v51.3
	c0,0,0,0,0,0c0,0,0,0,0,0c-2.1,0-4.2,0.7-5.8,2.1l-63.4,34.4v0c-2.9,2.5-7.1,2.8-10.4,0.8l-74.1-46.2c-2.6-1.6-4.2-4.5-4.2-7.6
	V280.9z M411.3,422H110.7c-11.4,0-20.7-9.3-20.7-20.7V100.7c0-5.7,4.6-10.4,10.4-10.4s10.4,4.6,10.4,10.4v300.6h300.6c0,0,0,0,0,0
	c5.7,0,10.4,4.7,10.4,10.4C421.7,417.4,417.1,422,411.3,422z"/>
</svg>
