<?xml version="1.0" encoding="utf-8"?>
<!-- Generator: Adobe Illustrator 23.0.2, SVG Export Plug-In . SVG Version: 6.00 Build 0)  -->
<svg version="1.1" id="Layer_1" xmlns="http://www.w3.org/2000/svg" xmlns:xlink="http://www.w3.org/1999/xlink" x="0px" y="0px"
	 viewBox="0 0 512 512" style="enable-background:new 0 0 512 512;" xml:space="preserve">
<style type="text/css">
	.st0{fill:#C2175B;}
</style>
<path class="st0" d="M332,0H180C80.6,0,0,80.6,0,180v152c0,99.4,80.6,180,180,180h152c99.4,0,180-80.6,180-180V180
	C512,80.6,431.4,0,332,0z M411.3,422H110.7c-11.4,0-20.7-9.3-20.7-20.7V100.7c0,0,0,0,0,0c0-5.7,4.7-10.4,10.4-10.4
	c5.7,0,10.4,4.7,10.4,10.4v300.6h300.6c0,0,0,0,0,0c5.7,0,10.4,4.7,10.4,10.4C421.7,417.4,417.1,422,411.3,422z M422,317.1
	c0,3.1-1.6,5.9-4.2,7.5l-74.2,46.1c-3.3,2-7.5,1.7-10.4-0.8l-63.5-54.4c-2.8-2.4-6.7-2.8-10-1.1l-115.1,62.2
	c-4.3,2.3-9.7,0.7-12-3.6c-0.7-1.3-1.1-2.7-1.1-4.2v-35.9c0-3.3,1.8-6.2,4.7-7.8l123.2-66.6c3.2-1.7,7.1-1.3,9.9,1l63.5,53.8
	c2.9,2.5,7.1,2.8,10.4,0.8l65.2-40.8c4.1-2.6,9.6-1.3,12.2,2.8c0.9,1.4,1.3,3,1.3,4.7V317.1z M422,215.3c0,2.4-0.9,4.6-2.6,6.3
	c-3.5,3.4-9.1,3.4-12.5-0.1L335.5,149c-3.3-3.3-8.6-3.5-12.1-0.5l-113.2,98.9c-3,2.6-7.5,2.9-10.8,0.6l-64-43.8
	c-2.4-1.6-3.8-4.4-3.9-7.3v-35.3c0-1.8,0.6-3.6,1.6-5.1c2.8-4,8.3-5,12.3-2.2l53.1,37.1c3.3,2.3,7.8,2.1,10.8-0.6l114.3-98.5
	c3.5-3,8.8-2.8,12.1,0.5l83.8,85.3c1.6,1.7,2.5,3.9,2.5,6.2V215.3z"/>
</svg>
