<svg xmlns="http://www.w3.org/2000/svg" viewBox="0 0 512 512"><rect fill="#a0a5ab" width="512" height="512" rx="180"/><path fill="#fff" d="M85,266.11a25,25,0,0,1,49.84-2.48l62,18.23a25,25,0,0,1,30.12-8.79l45.47-55.62a25,25,0,1,1,46.81-16l62.86,19.64a25,25,0,1,1-4.94,17.32l-61.22-19.13a25,25,0,0,1-30.11,10.21L240,285.59a24.85,24.85,0,0,1,2.34,10.56h0a25,25,0,0,1-49.75,3.21L130.06,281A25,25,0,0,1,85,266.11Zm27.74-45.43c9.31-2.07,15.73-10.66,15.73-20.21v-1.78a70.17,70.17,0,0,1,70.14-70.19H313.2a70.18,70.18,0,0,1,66.57,48.13c.08.22.16.46.23.68s.15.44.22.66l.3.76a20.3,20.3,0,0,0,39-7.9,23.16,23.16,0,0,0-.22-3c-.28-1.25-.58-2.49-.92-3.72A100,100,0,0,0,321.83,90H190A100,100,0,0,0,90,190.05v12.61a18.16,18.16,0,0,0,.49,4.22A18.52,18.52,0,0,0,112.74,220.68Zm294.45,61.25a18.56,18.56,0,0,0-23.9,17.73v13.71a70.1,70.1,0,0,1-70.08,70.13h-117c-32.93,0-59-23-65.89-53.74-.34-1.48-.63-3-.87-4.49a19.87,19.87,0,0,0-19-13.57c-11,0-19.93,8.68-19.93,19.39,0,.47,0,.93.06,1.39s.1,1,.17,1.56a0,0,0,0,0,0,0A100,100,0,0,0,189.92,422H321.83a100,100,0,0,0,99.93-100V301.78A20.51,20.51,0,0,0,407.19,281.93Z"/></svg>