<?xml version="1.0" encoding="utf-8"?>
<!-- Generator: Adobe Illustrator 23.0.2, SVG Export Plug-In . SVG Version: 6.00 Build 0)  -->
<svg version="1.1" id="Layer_1" xmlns="http://www.w3.org/2000/svg" xmlns:xlink="http://www.w3.org/1999/xlink" x="0px" y="0px"
	 viewBox="0 0 512 512" style="enable-background:new 0 0 512 512;" xml:space="preserve">
<style type="text/css">
	.st0{fill:#C2175B;}
</style>
<path class="st0" d="M332,0H180C80.6,0,0,80.6,0,180v152c0,99.4,80.6,180,180,180h152c99.4,0,180-80.6,180-180V180
	C512,80.6,431.4,0,332,0z M340,155.7c0-11,9-20,20-20c11,0,20,9,20,20V362c0,11-9,20-20,20c-11,0-20-9-20-20V155.7z M276,231.6
	c0-11,8.9-20,20-20c0,0,0,0,0,0c11,0,20,8.9,20,20c0,0,0,0,0,0V362c0,11-9,20-20,20s-20-9-20-20V231.6z M234,281.6
	c0-11,8.9-20,20-20c0,0,0,0,0,0c11,0,20,8.9,20,20c0,0,0,0,0,0V362c0,11-9,20-20,20s-20-9-20-20V281.6z M173,126c0-11,9-20,20-20
	s20,9,20,20v236c0,11-9,20-20,20s-20-9-20-20V126z M131,200c0-11,9-20,20-20s20,9,20,20v162c0,11-9,20-20,20s-20-9-20-20V200z
	 M411.3,422H110.7c-11.4,0-20.7-9.3-20.7-20.7V100.7c0,0,0,0,0,0c0-5.7,4.7-10.4,10.4-10.4c5.7,0,10.4,4.7,10.4,10.4v300.6h300.6
	c0,0,0,0,0,0c5.7,0,10.4,4.7,10.4,10.4C421.7,417.4,417.1,422,411.3,422z M422,249.6V362c0,11-9,20-20,20s-20-9-20-20V249.6
	c0-11,8.9-20,20-20c0,0,0,0,0,0C413,229.6,422,238.6,422,249.6C422,249.6,422,249.6,422,249.6z"/>
</svg>
