<?xml version="1.0" encoding="utf-8"?>
<!-- Generator: Adobe Illustrator 23.0.2, SVG Export Plug-In . SVG Version: 6.00 Build 0)  -->
<svg version="1.1" id="Layer_1" xmlns="http://www.w3.org/2000/svg" xmlns:xlink="http://www.w3.org/1999/xlink" x="0px" y="0px"
	 viewBox="0 0 512 512" style="enable-background:new 0 0 512 512;" xml:space="preserve">
<style type="text/css">
	.st0{fill:#C2175B;}
</style>
<path class="st0" d="M332,0H180C80.6,0,0,80.6,0,180v152c0,99.4,80.6,180,180,180h152c99.4,0,180-80.6,180-180V180
	C512,80.6,431.4,0,332,0z M401.2,337.7c-0.2,0.5-0.5,1-0.7,1.4c-29.9,51.3-84.8,82.9-144.2,82.7c-91.6-0.2-167.2-76.9-166-168.6
	C91.3,168.9,155.5,98.6,239.5,90c8.6-0.8,16.2,5.5,17,14.1c0,0.5,0.1,1,0.1,1.5v139.8c0,6.1,3.6,11.7,9.1,14.2c0,0,0.1,0.1,0.1,0.1
	l44.6,20.1l63.9,28.8c0,0,0,0,0,0l18.9,8.5C401.2,320.6,404.7,329.8,401.2,337.7z M421.5,278.9c-1,7.7-8.1,13.1-15.8,12
	c-1.3-0.2-2.6-0.6-3.9-1.1L293.2,241c-5.6-2.5-9.2-8.1-9.2-14.3V109.8c0-7.8,6.3-14.1,14-14.1c1.3,0,2.6,0.2,3.8,0.5
	C373.5,116.6,423,182,423,256.5C423,264,422.5,271.5,421.5,278.9z"/>
</svg>
